<svg width="215" height="28" viewBox="0 0 215 28" fill="none" xmlns="http://www.w3.org/2000/svg">
<path d="M0.08 28L12.88 -1.90735e-06H15.8L28.6 28H25.48L13.72 1.72H14.92L3.16 28H0.08ZM5.12 20.52L6 18.12H22.28L23.16 20.52H5.12ZM33.2319 28V-1.90735e-06H36.1919V28H33.2319Z" fill="#0079FA"/>
<path d="M45.3022 28V-1.90735e-06H47.7422L60.5422 21.84H59.2622L71.9422 -1.90735e-06H74.3822V28H71.5422V4.44H72.2222L60.5422 24.44H59.1422L47.3822 4.44H48.1422V28H45.3022ZM79.0253 28L91.8253 -1.90735e-06H94.7453L107.545 28H104.425L92.6653 1.72H93.8653L82.1053 28H79.0253ZM84.0653 20.52L84.9453 18.12H101.225L102.105 20.52H84.0653ZM112.177 28V-1.90735e-06H122.657C125.031 -1.90735e-06 127.071 0.386665 128.777 1.16C130.484 1.90667 131.791 3 132.697 4.44C133.631 5.85333 134.097 7.57333 134.097 9.6C134.097 11.5733 133.631 13.28 132.697 14.72C131.791 16.1333 130.484 17.2267 128.777 18C127.071 18.7467 125.031 19.12 122.657 19.12H113.817L115.137 17.76V28H112.177ZM131.297 28L124.097 17.84H127.297L134.537 28H131.297ZM115.137 18L113.817 16.6H122.577C125.377 16.6 127.497 15.9867 128.937 14.76C130.404 13.5333 131.137 11.8133 131.137 9.6C131.137 7.36 130.404 5.62667 128.937 4.4C127.497 3.17333 125.377 2.56 122.577 2.56H113.817L115.137 1.16V18ZM143.643 21.04L143.523 17.44L160.483 -1.90735e-06H163.883L151.523 12.96L149.843 14.76L143.643 21.04ZM141.083 28V-1.90735e-06H144.043V28H141.083ZM161.203 28L149.123 14.08L151.123 11.92L164.723 28H161.203ZM172.161 12.52H186.961V15.04H172.161V12.52ZM172.481 25.44H189.321V28H169.521V-1.90735e-06H188.721V2.56H172.481V25.44ZM201.719 28V2.56H191.879V-1.90735e-06H214.519V2.56H204.679V28H201.719Z" fill="black"/>
</svg>
